<?xml version="1.0" encoding="utf-8"?>
<!-- Generator: Adobe Illustrator 13.0.0, SVG Export Plug-In . SVG Version: 6.00 Build 14948)  -->
<!DOCTYPE svg PUBLIC "-//W3C//DTD SVG 1.1//EN" "http://www.w3.org/Graphics/SVG/1.1/DTD/svg11.dtd">
<svg version="1.1" id="Layer_1" xmlns="http://www.w3.org/2000/svg" xmlns:xlink="http://www.w3.org/1999/xlink" x="0px" y="0px"
	 width="185.867px" height="55.913px" viewBox="0 0 185.867 55.913" enable-background="new 0 0 185.867 55.913"
	 xml:space="preserve">
<g>
	<defs>
		<rect id="SVGID_1_" x="5.02" y="5" width="175.847" height="45.892"/>
	</defs>
	<clipPath id="SVGID_2_">
		<use xlink:href="#SVGID_1_"  overflow="visible"/>
	</clipPath>
	<g clip-path="url(#SVGID_2_)" enable-background="new    ">
		<g>
			<defs>
				<rect id="SVGID_3_" x="4" y="4.46" width="177" height="47"/>
			</defs>
			<clipPath id="SVGID_4_">
				<use xlink:href="#SVGID_3_"  overflow="visible"/>
			</clipPath>
			<g clip-path="url(#SVGID_4_)">
				<defs>
					<path id="SVGID_5_" d="M139.145,47.449h0.692l1.598,2.097v-2.097h0.74v3.405h-0.638l-1.651-2.165v2.165h-0.741V47.449z
						 M134.903,47.449h2.572v0.666h-1.827v0.691h1.608v0.666h-1.608v0.716h1.852v0.666h-2.597V47.449z M130.224,47.449h0.75v1.348
						h1.383v-1.348h0.751v3.405h-0.751v-1.367h-1.383v1.367h-0.75V47.449z M125.499,49.161v-0.009c0-0.969,0.73-1.762,1.779-1.762
						c0.643,0,1.027,0.214,1.344,0.525l-0.477,0.55c-0.264-0.238-0.531-0.384-0.873-0.384c-0.575,0-0.989,0.476-0.989,1.06v0.011
						c0,0.582,0.404,1.069,0.989,1.069c0.391,0,0.629-0.155,0.897-0.398l0.477,0.481c-0.351,0.375-0.74,0.608-1.398,0.608
						C126.244,50.913,125.499,50.139,125.499,49.161z M122.456,48.139h-1.037v-0.69h2.825v0.69h-1.038v2.715h-0.75V48.139z
						 M119.083,50.854h0.75v-3.405h-0.75V50.854z M114.515,47.449h0.75v1.488l1.385-1.488h0.905l-1.389,1.444l1.453,1.961h-0.902
						l-1.057-1.45l-0.396,0.409v1.041h-0.75V47.449z M107.294,47.449h0.692l1.598,2.097v-2.097h0.741v3.405h-0.638l-1.653-2.165
						v2.165h-0.74V47.449z M104.427,49.428l-0.453-1.104l-0.453,1.104H104.427z M103.638,47.424h0.691l1.462,3.43h-0.784
						l-0.312-0.764h-1.442l-0.312,0.764h-0.766L103.638,47.424z M99.889,50.854h0.75v-3.405h-0.75V50.854z M95.862,47.449h0.751
						v2.725h1.7v0.681h-2.451V47.449z M92.994,49.428l-0.453-1.104l-0.454,1.104H92.994z M92.205,47.424h0.692l1.461,3.43h-0.785
						l-0.311-0.764H91.82l-0.312,0.764h-0.764L92.205,47.424z M88.134,48.139h-1.038v-0.69h2.826v0.69h-1.038v2.715h-0.751V48.139z
						 M84.762,50.855h0.75v-3.406h-0.75V50.855z"/>
				</defs>
				<clipPath id="SVGID_6_">
					<use xlink:href="#SVGID_5_"  overflow="visible"/>
				</clipPath>
				<g clip-path="url(#SVGID_6_)">
					<defs>
						<rect id="SVGID_7_" x="5" y="4.46" width="176" height="47"/>
					</defs>
					<clipPath id="SVGID_8_">
						<use xlink:href="#SVGID_7_"  overflow="visible"/>
					</clipPath>
					<rect x="79.762" y="42.39" clip-path="url(#SVGID_8_)" fill="#9FA73A" width="67.413" height="13.522"/>
				</g>
			</g>
			<g clip-path="url(#SVGID_4_)">
				<defs>
					<path id="SVGID_9_" d="M115.22,32.676c0-2.064-1.001-4.146-3.24-4.146c-2.941,0-3.17,3.174-3.17,4.146s0.229,4.146,3.17,4.146
						C114.219,36.823,115.22,34.741,115.22,32.676z M122.752,31.025c1.017,0.442,1.994,0.677,2.839,0.677
						c0.644,0,1.185-0.134,1.604-0.396c0.487-0.306,0.734-0.761,0.734-1.354c0-0.686-0.592-1.421-1.89-1.421
						C124.446,28.53,123.258,29.435,122.752,31.025z M146.946,37.538c-0.696,0.668-1.736,1.588-3.405,1.588
						c-2.298,0-3.671-1.613-3.671-4.312v-3.59c0-2.107-0.771-2.521-2.103-2.521c-1.767,0-3.376,2.163-3.376,4.539v5.378
						c0,0.133-0.108,0.242-0.243,0.242h-1.821c-0.134,0-0.242-0.109-0.242-0.242v-2.477c-1.052,1.303-2.789,2.982-5.74,2.982
						c-1.794,0-3.217-0.6-4.263-1.618c-0.732,0.854-1.833,1.512-3.058,1.512c-1.244,0-2.268-0.76-2.924-2.024
						c-0.982,1.229-2.321,2.131-4.121,2.131c-3.326,0-5.477-2.531-5.477-6.449s2.15-6.45,5.477-6.45
						c1.406,0,2.459,0.517,3.369,1.272v-6.882c0-0.134,0.107-0.243,0.242-0.243h1.82c0.135,0,0.243,0.109,0.243,0.243v13.063
						c0,1.931,0.515,3.033,1.465,3.033c0.738,0,1.242-0.577,1.665-1.053c-0.329-0.836-0.585-1.776-0.585-2.983
						c0-3.737,2.456-6.45,5.841-6.45c2.725,0,4.195,1.919,4.195,3.725c0,1.379-0.66,2.583-1.815,3.306
						c-0.793,0.496-1.746,0.748-2.831,0.748c-0.956,0-1.978-0.195-3.041-0.583c0.165,1.419,0.898,3.401,3.706,3.401
						c3.538,0,5.325-3.024,5.831-4.431v-5.603c0-0.133,0.108-0.242,0.242-0.242h1.821c0.135,0,0.243,0.109,0.243,0.242v1.033
						c0.959-0.885,2.136-1.422,3.376-1.422c1.647,0,4.409,0.626,4.409,4.823v3.59c0,2.01,0.921,2.01,1.364,2.01
						c0.898,0,1.498-0.613,2.303-1.443c0.059-0.062,0.139-0.097,0.224-0.083c0.084,0.013,0.155,0.068,0.187,0.147l0.745,1.832
						C147.037,37.366,147.018,37.471,146.946,37.538z M91.176,32.676c0-1.998-1.014-4.146-3.24-4.146
						c-2.942,0-3.17,3.174-3.17,4.146s0.228,4.146,3.17,4.146C90.163,36.823,91.176,34.672,91.176,32.676z M113.913,42.897
						c-0.035,0.063-0.096,0.108-0.167,0.123c-0.89,0.181-1.752,0.272-2.563,0.272c-2.021,0-3.756-0.549-5.155-1.632
						c-2.188-1.691-3.345-4.52-3.345-8.179v-3.668c0-0.317-0.061-0.542-0.177-0.65c-0.183-0.173-0.403-0.194-0.847-0.171
						c-1.04,0.061-1.969-0.077-2.753-0.304c0.122,0.996,0.183,2.146,0.183,3.387c0,4.679-1.332,7.051-3.96,7.051
						c-0.868,0-2.227-0.431-3.112-2.13c-0.989,1.221-2.272,2.129-4.081,2.129c-3.327,0-5.476-2.531-5.476-6.449
						s2.149-6.45,5.476-6.45c1.285,0,2.43,0.435,3.341,1.196v-0.65c0-0.134,0.108-0.242,0.241-0.242h1.822
						c0.134,0,0.243,0.108,0.243,0.242v6.625c0,1.279,0.2,3.427,1.545,3.427c1.439,0,1.653-2.975,1.653-4.748
						c0-2.975-0.345-4.407-0.761-5.846c-0.037-0.126,0.034-0.26,0.161-0.299l1.802-0.554c0.12-0.035,0.248,0.024,0.296,0.14
						c0.325,0.792,1.239,1.193,2.718,1.193c0.166,0,0.342-0.005,0.527-0.016c1.057-0.062,1.948,0.214,2.562,0.794
						c0.411,0.386,0.9,1.104,0.9,2.326v3.668c0,2.921,0.848,5.119,2.451,6.358c0.984,0.762,2.246,1.147,3.75,1.147
						c0.559,0,1.153-0.055,1.768-0.161c0.112-0.021,0.224,0.041,0.267,0.146l0.7,1.718
						C113.951,42.757,113.946,42.833,113.913,42.897z M80.937,29.27h-1.821c-0.133,0-0.243,0.108-0.243,0.243
						c0,3.76-2.235,7.565-6.508,7.565c-3.548,0-5.841-2.617-5.841-6.669c0-3.689,2.079-7.66,6.643-7.66
						c1.718,0,3.724,0.766,3.724,2.926c0,1.047-0.601,1.989-1.608,2.518c-0.109,0.058-0.158,0.188-0.112,0.304l0.671,1.705
						c0.026,0.062,0.075,0.11,0.137,0.136c0.062,0.024,0.132,0.022,0.193-0.006c1.895-0.897,3.025-2.638,3.025-4.657
						c0-3.079-2.48-5.229-6.031-5.229c-6.149,0-8.95,5.165-8.95,9.963c0,5.366,3.275,8.972,8.147,8.972
						c3.111,0,5.249-1.646,6.508-3.51v2.309c0,4.812-2.083,4.829-2.973,4.829c-0.698,0-1.322-0.242-1.855-0.717
						c-0.058-0.053-0.14-0.072-0.217-0.057c-0.077,0.019-0.141,0.072-0.17,0.146l-0.71,1.744c-0.042,0.105-0.008,0.226,0.085,0.291
						c0.852,0.594,1.815,0.896,2.867,0.896c2.408,0,5.279-1.234,5.279-7.114v-8.58c0-0.004-0.002-0.006-0.002-0.01
						c0.001-0.032,0.002-0.064,0.002-0.095C81.18,29.378,81.071,29.27,80.937,29.27z M53.447,30.392
						c0.914,0.465,1.817,0.688,2.682,0.688c0.934,0,2.515-0.343,2.515-1.628c0-1.4-1.55-1.508-2.026-1.508
						C55.216,27.944,54.067,28.84,53.447,30.392z M62.188,36.782c-0.998,0.951-2.651,2.215-5.48,2.215c-3.533,0-6-2.564-6-6.312
						c0-0.417,0.035-0.88,0.096-1.296c-0.53-0.373-1.254-1.007-1.699-1.47c-0.282,3.051-1.913,6.014-4.136,8.844
						c-0.048,0.06-0.118,0.098-0.195,0.098h-1.902c-0.106,0-0.201-0.07-0.232-0.172c-1.887-6.146-4.305-10.522-5.001-11.716
						c-0.044-0.075-0.044-0.167-0.001-0.242c0.043-0.076,0.124-0.123,0.211-0.123h2.091c0.089,0,0.171,0.049,0.213,0.127
						c0.862,1.577,2.52,5.03,4.027,9.41c2.475-3.439,3.205-6.565,2.232-9.178c-0.023-0.062-0.02-0.132,0.01-0.191
						c0.03-0.06,0.083-0.105,0.146-0.125l1.811-0.556c0.106-0.031,0.215,0.014,0.278,0.104c0.742,1.049,1.861,2.211,2.815,2.938
						c1.041-2.178,2.881-3.495,5.148-3.495c2.551,0,4.332,1.568,4.332,3.812c0,2.314-1.981,3.931-4.82,3.931
						c-1.025,0-2.072-0.261-3.116-0.706c0.012,2.012,1.155,4.016,3.695,4.016c2.253,0,3.403-1.031,4.388-2.087
						c0.057-0.06,0.14-0.088,0.222-0.072c0.081,0.015,0.149,0.07,0.181,0.146l0.747,1.835
						C62.282,36.608,62.259,36.712,62.188,36.782z M13.62,39.331c0.103,0,0.206-0.002,0.31-0.005
						c2.552-0.082,4.701-1.118,6.213-2.999c1.503-1.87,2.249-4.415,2.154-7.361c-0.187-5.867-3.152-9.659-7.553-9.659
						c-0.087,0-0.176,0.002-0.264,0.005c-1.29,0.041-2.401,0.473-3.214,1.25c-0.837,0.799-1.276,1.912-1.236,3.133
						c0.043,1.371,0.761,2.586,1.917,3.25c0.438,0.253,1.174,0.553,2.188,0.553c0.9,0,1.865-0.236,2.869-0.7
						c0.117-0.055,0.171-0.191,0.123-0.311l-0.688-1.687c-0.024-0.062-0.075-0.111-0.137-0.135
						c-0.062-0.024-0.131-0.022-0.192,0.008c-1.23,0.585-2.301,0.686-3.012,0.277c-0.467-0.268-0.745-0.752-0.764-1.329
						c-0.018-0.567,0.165-1.05,0.526-1.396c0.395-0.378,0.98-0.589,1.693-0.612c0.058-0.002,0.114-0.003,0.171-0.003
						c3.056,0,5.124,2.917,5.267,7.431c0.075,2.333-0.467,4.317-1.566,5.738c-1.089,1.408-2.668,2.185-4.569,2.245
						c-0.078,0.002-0.165,0.01-0.231,0.004c-4.184,0-6.206-3.634-6.313-7.007c-0.098-3.052,1.11-5.073,1.837-6.005
						c0.054-0.069,0.066-0.161,0.034-0.24l-0.764-1.878c-0.031-0.075-0.097-0.129-0.177-0.146c-0.078-0.016-0.16,0.007-0.219,0.064
						c-0.531,0.52-3.173,3.364-3.016,8.278C5.181,35.53,8.722,39.33,13.62,39.331L13.62,39.331z M26.042,32.448
						c1.022-2.02,2.069-5.543,2.069-8.562c0-1.798-0.617-2.7-0.964-2.7c-0.535,0-1.11,1.05-1.11,3.357v7.477
						C26.037,32.164,26.039,32.307,26.042,32.448z M40.843,37.617c-0.991,0.917-2.112,1.381-3.336,1.381
						c-0.89,0-2.555-0.283-3.62-2.031c-1.012,0.991-2.586,2.031-4.852,2.031c-2.42,0-5.304-1.335-5.304-7.697v-6.758
						c0-5.107,2.389-5.66,3.416-5.66c1.629,0,3.271,1.547,3.271,5.003c0,5.353-2.752,9.881-3.726,11.312
						c0.717,1.497,1.811,1.497,2.343,1.497c2.256,0,3.548-1.571,4.003-2.254c-0.091-0.583-0.142-1.238-0.142-1.976V26.85
						c0-0.133,0.108-0.242,0.243-0.242h1.82c0.135,0,0.244,0.109,0.244,0.242v5.615c0,2.806,0.774,4.229,2.304,4.229
						c1.034,0,1.807-0.713,2.272-1.312c0.053-0.068,0.139-0.104,0.225-0.091c0.086,0.013,0.16,0.069,0.192,0.15
						c0.284,0.707,0.523,1.354,0.711,1.921C40.938,37.452,40.913,37.552,40.843,37.617z M32.737,23.369
						c0-0.73,0.593-1.323,1.325-1.323c0.732,0,1.325,0.593,1.325,1.323c0,0.731-0.592,1.323-1.325,1.323
						C33.33,24.692,32.737,24.101,32.737,23.369z"/>
				</defs>
				<clipPath id="SVGID_10_">
					<use xlink:href="#SVGID_9_"  overflow="visible"/>
				</clipPath>
				<g clip-path="url(#SVGID_10_)">
					<defs>
						<rect id="SVGID_11_" x="5" y="4.46" width="176" height="47"/>
					</defs>
					<clipPath id="SVGID_12_">
						<use xlink:href="#SVGID_11_"  overflow="visible"/>
					</clipPath>
					<rect y="13.882" clip-path="url(#SVGID_12_)" fill="#452D20" width="152.019" height="36.43"/>
				</g>
			</g>
			<g clip-path="url(#SVGID_4_)">
				<defs>
					<path id="SVGID_13_" d="M158.506,35.279c-0.016-0.017-0.043-0.038-0.067-0.053c-0.188-0.125-0.425-0.206-0.677-0.221
						c-0.613-0.035-1.223,0.315-1.555,0.887c-0.014,0.024-0.008,0.059,0.013,0.071c0.178,0.11,0.226,0.161,0.368,0.304
						c0.008,0.007,0.021,0.011,0.033,0.012c0.003,0.001,0.006,0.001,0.009,0c0.015-0.002,0.029-0.01,0.039-0.021
						c0.329-0.415,0.989-0.829,1.642-0.822c0,0,0.036,0,0.039,0.001C158.527,35.45,158.584,35.363,158.506,35.279 M155.382,29.032
						c-0.572-1.178-1.154-2.191-1.72-3.171c-0.889-1.538-1.806-3.129-2.704-5.401c-0.013-0.027-0.042-0.042-0.069-0.033
						s-0.044,0.037-0.039,0.065c0.012,0.057,1.12,5.543,4.302,8.653C155.316,29.302,155.473,29.233,155.382,29.032 M138.341,20.324
						c-0.001-0.029-0.023-0.052-0.051-0.054c-0.916-0.093-1.754-0.16-2.56-0.204c-2.1-0.113-3.616-0.051-5.371,0.021
						c-0.385,0.016-0.779,0.032-1.19,0.046c-0.028,0.001-0.053,0.024-0.054,0.053c-0.002,0.029,0.019,0.055,0.048,0.059
						c1.077,0.165,2.188,0.278,3.3,0.338c3.419,0.185,5.807-0.198,5.831-0.202C138.321,20.377,138.341,20.353,138.341,20.324
						 M137.29,14.342c-0.665-0.613-3.521-3.076-7.719-4.226c-0.028-0.007-0.056,0.007-0.066,0.034
						c-0.011,0.026-0.002,0.056,0.023,0.07c0.684,0.391,1.388,0.816,2.132,1.265c1.84,1.11,3.742,2.255,5.589,3.033
						C137.404,14.572,137.4,14.445,137.29,14.342 M144.59,17.206c-0.213-1.843-0.569-3.522-0.946-5.302
						c-0.267-1.254-0.541-2.553-0.772-3.951c-0.005-0.028-0.032-0.048-0.058-0.046c-0.028,0.001-0.05,0.024-0.051,0.053
						c-0.236,5.581,1.705,9.242,1.725,9.278c0.01,0.019,0.027,0.029,0.046,0.029c0.007,0,0.014,0,0.019-0.001
						C144.578,17.257,144.594,17.231,144.59,17.206 M157.692,18.436c0-0.012-0.003-0.024-0.009-0.034
						c-0.076-0.255-1.056-3.328-5.2-6.137c-0.023-0.017-0.057-0.012-0.075,0.011c-0.019,0.023-0.016,0.057,0.007,0.077
						c1.305,1.186,2.341,2.516,3.54,4.055c0.511,0.654,1.038,1.331,1.634,2.061c0.011,0.013,0.025,0.02,0.041,0.021h0.003
						C157.664,18.49,157.69,18.466,157.692,18.436 M160.526,10.226c-0.259-0.251-0.573-0.393-0.911-0.411
						c-0.542-0.029-1.041,0.264-1.299,0.765c-0.012,0.023-0.006,0.057,0.013,0.069c0.192,0.128,0.208,0.146,0.358,0.312
						c0.008,0.01,0.021,0.014,0.034,0.014c0.003,0,0.007,0,0.01,0c0.016-0.002,0.029-0.011,0.038-0.023
						c0.266-0.363,0.834-0.715,1.406-0.683c0.101,0.005,0.201,0.023,0.295,0.053c0.023,0.006,0.053-0.003,0.065-0.025
						C160.549,10.272,160.545,10.244,160.526,10.226 M166.601,11.677c1.241-0.641,2.264-1.193,3.338-1.774
						c1.329-0.718,2.704-1.46,4.618-2.438c0.025-0.014,0.037-0.042,0.026-0.069c-0.009-0.026-0.037-0.042-0.063-0.037
						c-0.041,0.009-4.007,0.867-8.029,4.124C166.294,11.645,166.408,11.777,166.601,11.677 M165.243,18.09
						c1.279-0.149,4.132-0.666,7.207-2.441c0.023-0.015,0.033-0.043,0.021-0.068c-0.01-0.024-0.038-0.038-0.065-0.03
						c-0.844,0.265-1.688,0.555-2.585,0.861c-1.513,0.517-3.068,1.049-4.624,1.46h0.001C164.848,17.962,164.852,18.14,165.243,18.09
						 M166.416,27.376c-0.083-1.105-0.17-2.247-0.188-3.818c0-0.029-0.022-0.054-0.052-0.055l0,0
						c-0.029-0.001-0.054,0.02-0.059,0.048c-0.688,4.961-0.07,7.945,0.188,8.897c0.047,0.163,0.216,0.191,0.228-0.045
						C166.634,30.247,166.529,28.849,166.416,27.376 M180.598,41.14c-0.262,0.032-0.522,0.056-0.782,0.074
						c-2.159,0.154-4.325,0.054-6.453-0.309c-2.126-0.365-4.212-0.993-6.165-1.939c-1.705-0.828-3.312-1.908-4.668-3.263
						c-1.367-0.221-2.315-0.052-2.746,0.063c0.152,0.551,0.104,1.081-0.143,1.539c-0.262,0.487-0.726,0.852-1.339,1.053
						c-0.325,0.105-0.649,0.15-0.967,0.134c-0.903-0.049-1.61-0.586-1.891-1.438c-0.18-0.549-0.146-1.098,0.102-1.586
						c0.271-0.537,0.776-0.948,1.424-1.16c0.323-0.106,0.643-0.151,0.948-0.136c0.854,0.044,1.319,0.588,1.448,0.755
						c0.009,0.011,0.017,0.021,0.023,0.032c0.073,0.106,0.153,0.169,0.349,0.122c0.61-0.147,1.373-0.181,1.735-0.163
						c0.248,0.013,0.298-0.022,0.114-0.252c-0.365-0.427-1.006-1.393-1.054-1.476c-0.11-0.176-0.459-0.488-0.791-0.635h0.002
						c-1.13-0.511-2.39-1.198-3.229-1.777c-1.756-0.231-3.271-1.08-4.487-2.682c-0.949-1.248-1.616-2.847-1.97-4.635
						c-1.218-0.193-2.436-0.434-3.633-0.802c-0.396-0.122-0.85-0.286-1.208-0.426c-0.521-0.202-1.474-0.595-1.905-0.722
						c-1.076-0.282-2.136-0.511-3.166-0.691c-2.825,1.124-5.164,1.597-7.305,1.481c-2.061-0.111-3.964-0.765-5.804-1.996
						c-0.368-0.255-0.172-0.485,0.119-0.597c2.922-1.081,5.435-1.549,7.664-1.429c2.128,0.114,4.039,0.754,5.832,1.948
						c0.537,0.099,1.082,0.212,1.633,0.337c-0.257-0.2-0.509-0.406-0.747-0.627c-1.176-1.087-2.089-2.399-2.816-3.787
						c-0.215-0.397-0.435-0.521-0.717-0.546h0.001c-5.205-0.512-7.023-2.171-11.055-6.452c-0.015-0.015-0.02-0.04-0.011-0.059
						c0.009-0.021,0.027-0.034,0.05-0.036c0.484-0.022,0.978-0.019,1.467,0.008c4.993,0.27,9.377,2.926,10.536,6.349
						c0.796,1.49,1.792,2.874,3.053,3.957c0.876,0.76,1.88,1.348,2.947,1.79c0.256,0.093,0.462-0.002,0.333-0.281
						c-0.229-0.512-0.443-1.079-0.643-1.69c-3.305-4.937-4.588-8.701-2.061-14.157C142.634,5.013,142.654,5,142.676,5
						c0.021-0.002,0.042,0.013,0.051,0.034c2.283,5.001,4.33,10.503,2.573,13.86c0.359,1.116,0.763,2.086,1.213,2.792
						c0.06,0.018,0.12,0.037,0.182,0.053c1.038,0.278,2.106,0.461,3.188,0.601c-0.173-1.438-0.157-2.968,0.067-4.519
						c0.004-0.022,0.02-0.04,0.041-0.046c0.021-0.006,0.043,0.001,0.058,0.018c4.021,4.679,6.181,8.61,6.745,12.294
						c0.665,0.49,1.427,0.961,2.301,1.406c0.278,0.143,0.562,0.008,0.403-0.388c-0.046-0.115-0.404-1.099-0.539-1.755
						c-0.119-0.588-0.21-1.097-0.264-1.607c-0.06-0.55-0.089-1.647-0.082-1.908c0.011-0.401,0.012-0.776,0.026-1.107
						c-0.304-0.061-1.244-0.231-1.407-0.258c-0.608-0.104-1.188-0.194-1.802-0.28c-0.2-0.366-0.499-0.883-0.81-1.375
						c0.948,0.091,1.865,0.189,2.814,0.316c0.435,0.057,0.869,0.124,1.305,0.195c0.013-0.12,0.021-0.238,0.037-0.358
						c0.036-0.309,0.083-0.618,0.137-0.926c-0.145-0.755-0.511-1.603-1.017-2.483c-2.715-0.224-4.479-3.569-6.344-7.112
						c-0.308-0.583-0.625-1.185-0.947-1.775c-0.011-0.02-0.009-0.043,0.005-0.061c0.013-0.018,0.036-0.026,0.058-0.021
						c2.384,0.553,4.507,1.799,5.979,3.507c1.379,1.601,2.02,3.405,1.823,5.115c0.147,0.256,0.394,0.736,0.394,0.736
						c0.178,0.371,0.412,0.416,0.531,0.029c0.193-0.634,0.596-1.759,1.071-2.644c0.279-1.708-0.186-3.321-0.361-3.847
						c-0.205,0.049-0.41,0.071-0.61,0.06c-0.833-0.046-1.504-0.582-1.843-1.475c-0.24-0.631-0.235-1.281,0.011-1.828
						c0.225-0.498,0.628-0.868,1.165-1.07c0.292-0.111,0.586-0.159,0.877-0.143c0.848,0.045,1.586,0.634,1.928,1.536
						c0.413,1.087,0.078,2.106-0.799,2.625c-0.076,0.045-0.071,0.123-0.058,0.166c0.116,0.365,0.358,1.114,0.446,2.409
						c0.008,0.118,0.079,0.179,0.163,0.053c0.285-0.429,1.66-2.206,3.523-3.464c0.924-1.711,2.395-3.26,4.175-4.392
						c2.48-1.575,5.392-2.21,8.336-1.815c0.022,0.002,0.04,0.018,0.047,0.04c0.007,0.021,0,0.043-0.017,0.059
						c-3.65,3.242-7.786,6.918-11.42,6.723c-0.273-0.015-0.543-0.055-0.805-0.114c-1.585,1.201-2.908,2.714-3.808,4.455
						c-0.211,0.405-0.396,0.822-0.562,1.244c0.553-0.095,1.114-0.206,1.677-0.328c0.286-0.066,0.622-0.191,0.979-0.513
						c2.829-2.631,4.97-2.83,11.274-3.391l0.091-0.007c0.09-0.008,0.161,0.014,0.196,0.055c0.035,0.042,0.032,0.105-0.028,0.177
						c-1.673,2.022-5.99,4.757-10.405,4.519c-0.572-0.031-1.133-0.115-1.673-0.244c-0.597,0.134-1.192,0.256-1.78,0.359
						c-0.297,0.051-0.603,0.108-0.718,0.496c-0.331,1.104-0.534,2.249-0.628,3.402c-0.083,1.003-0.089,2.015-0.036,3.025
						c0.045,1.016,0.166,1.983,0.428,2.932c0.507,1.895,1.517,3.621,2.876,5.02c0.974,1.008,2.115,1.849,3.349,2.537
						c0.223,0.105,0.432,0.024,0.33-0.297c-0.081-0.252-0.394-1.303-0.536-2.188c-1.328-1.959-2.163-4.682-1.919-7.555
						c-0.63-0.299-1.278-0.566-1.94-0.8c-0.708-0.255-1.433-0.469-2.165-0.657c-0.005-0.462-0.001-0.979,0.026-1.492
						c0.885,0.187,1.767,0.411,2.632,0.689c0.574,0.181,1.145,0.389,1.706,0.62c0.311-1.345,0.877-2.697,1.756-3.997
						c0.076-0.092,0.17-0.125,0.218,0.048v0.001c1.329,4.886,2.784,10.356,0.401,13.247c0.245,1.291,0.558,2.241,0.883,2.942
						c0.055,0.109,0.119,0.184,0.252,0.247c1.768,0.754,3.653,1.242,5.567,1.494c1.854,0.242,3.822,0.267,5.676,0.081
						c0.744-0.073,0.873,0.03,1.059,0.519c0.119,0.312,0.358,0.864,0.436,1.125C180.921,40.898,180.824,41.113,180.598,41.14
						 M168.613,27.116c0.188,1.094,0.224,1.828,0.243,2.531c0.656,0.655,1.202,1.367,1.718,2.138
						c0.509,0.754,0.928,1.561,1.312,2.389c0.143,0.308,0.301,0.419,0.627,0.334c0.325-0.086,1.328-0.351,1.328-0.351
						c0.132-0.051,0.175-0.13,0.111-0.29c-0.55-1.338-0.956-1.983-1.815-3.172C171.15,29.322,169.97,28.111,168.613,27.116"/>
				</defs>
				<clipPath id="SVGID_14_">
					<use xlink:href="#SVGID_13_"  overflow="visible"/>
				</clipPath>
				<g clip-path="url(#SVGID_14_)">
					<defs>
						<rect id="SVGID_15_" x="5" y="4.46" width="176" height="47"/>
					</defs>
					<clipPath id="SVGID_16_">
						<use xlink:href="#SVGID_15_"  overflow="visible"/>
					</clipPath>
					<rect x="121.838" clip-path="url(#SVGID_16_)" fill="#9FA73A" width="64.029" height="46.284"/>
				</g>
			</g>
		</g>
	</g>
</g>
<g>
	<defs>
		<path id="SVGID_17_" d="M145,39.912c0-1.332,2-1.332,2,0C147,41.247,145,41.247,145,39.912z M146.765,39.912
			c0-1.062-1.53-1.062-1.53,0S146.765,40.967,146.765,39.912z M146.447,40.35v0.032h-0.202l-0.218-0.319h-0.167v0.319h-0.194v-0.948
			h0.408c0.2,0,0.348,0.113,0.348,0.323c0,0.131-0.071,0.244-0.203,0.279L146.447,40.35z M145.86,39.903h0.196
			c0.098,0,0.171-0.059,0.171-0.148c0-0.084-0.068-0.148-0.171-0.148h-0.196V39.903z"/>
	</defs>
	<clipPath id="SVGID_18_">
		<use xlink:href="#SVGID_17_"  overflow="visible"/>
	</clipPath>
	<rect x="140" y="33.913" clip-path="url(#SVGID_18_)" fill="#9FA73A" width="12" height="12"/>
</g>
</svg>
